PathFileType	4	(X/Y/Z)	C:\Users\ebm\Documents\Erivelton\Erivelton2\wc9.trc
DataRate	CameraRate	NumFrames	NumMarkers	Units	OrigDataRate	OrigDataStartFrame	OrigNumFrames
150.00	150.00	      60	28	mm	150.00	324	      1293
Frame#	Time	IJ			PX			C7			T8			RAC			RAS			RPS			RAI			RPI			RLE			RME			RRS			RUS			R3M			R5M			LAC			LAS			LPS			LAI			LPI			LLE			LME			LRS			LUS			L3M			L5M			RW			LW			V_mid_elbow_r			V_mid_elbow_l			V_mid_wrist_r			V_mid_wrist_l			V_mid_trunk_low			V_mid_trunk_upp			
		X1	Y1	Z1	X2	Y2	Z2	X3	Y3	Z3	X4	Y4	Z4	X5	Y5	Z5	X6	Y6	Z6	X7	Y7	Z7	X8	Y8	Z8	X9	Y9	Z9	X10	Y10	Z10	X11	Y11	Z11	X12	Y12	Z12	X13	Y13	Z13	X14	Y14	Z14	X15	Y15	Z15	X16	Y16	Z16	X17	Y17	Z17	X18	Y18	Z18	X19	Y19	Z19	X20	Y20	Z20	X21	Y21	Z21	X22	Y22	Z22	X23	Y23	Z23	X24	Y24	Z24	X25	Y25	Z25	X26	Y26	Z26	X27	Y27	Z27	X28	Y28	Z28	

324	2.153																																																																																					
325	2.160																																																																																					
326	2.167																																																																																					
327	2.173																																																																																					
328	2.180																																																																																					
329	2.187																																																																																					
330	2.193																																																																																					
331	2.200																																																																																					
332	2.207																																																																																					
333	2.213																																																																																					
334	2.220																																																																																					
335	2.227																																																																																					
336	2.233																																																																																					
337	2.240																																																																																					
338	2.247																																																																																					
339	2.253																																																																																					
340	2.260																																																																																					
341	2.267																																																																																					
342	2.273																																																																																					
343	2.280																																																																																					
344	2.287																																																																																					
345	2.293																																																																																					
346	2.300																																																																																					
347	2.307																																																																																					
348	2.313																																																																																					
349	2.320																																																																																					
350	2.327																																																																																					
351	2.333																																																																																					
352	2.340																																																																																					
353	2.347																																																																																					
354	2.353																																																																																					
355	2.360																																																																																					
356	2.367																																																																																					
357	2.373																																																																																					
358	2.380																																																																																					
359	2.387																																																																																					
360	2.393																																																																																					
361	2.400																																																																																					
362	2.407																						-1748.00366	808.80688	347.01898																																																													
363	2.413																						-1741.85071	811.73279	350.07956																																																													
364	2.420													-1796.51746	1057.51697	249.87378							-1735.67896	814.33624	353.09766																																																													
365	2.427													-1790.06372	1059.38806	249.96182							-1729.54431	816.87915	356.03198																																																													
366	2.433													-1783.61157	1061.15625	250.01210							-1723.42761	819.21661	358.88528																																																													
367	2.440													-1777.09888	1062.80127	250.12465							-1717.42957	821.64178	361.72546																																																													
368	2.447													-1770.52173	1064.31726	250.20239							-1711.35632	823.90784	364.28833										-1488.37158	639.65961	342.91800																															-1530.06091	607.68066	-243.31033																
369	2.453													-1763.92480	1065.73096	250.32457							-1704.88428	825.70526	365.79932										-1479.51746	647.44739	341.58856																															-1518.90796	612.66437	-239.60039																
370	2.460													-1757.24060	1067.07166	250.37590							-1698.49329	827.58057	367.64627										-1469.67822	652.62128	338.86490																															-1506.81836	619.12152	-236.07036																
371	2.467													-1750.52856	1068.24426	250.48529							-1692.07092	829.43097	369.35495										-1461.38477	659.91553	337.30237																															-1497.59778	626.22681	-234.04193																
372	2.473													-1743.75525	1069.33704	250.50581							-1685.17664	830.93945	370.17673										-1453.36572	666.87256	335.80383																															-1488.89307	633.16144	-231.96178				-1438.40784	556.88947	-270.59479										
373	2.480													-1736.85852	1070.24890	250.49773							-1678.15027	832.25897	370.82401										-1445.54456	673.51984	333.99915																															-1480.50000	640.01227	-229.76141				-1427.32239	565.11475	-267.60342	-1462.18030	557.75983	-286.25128							
374	2.487													-1729.83850	1070.99927	250.41649							-1671.42297	833.66461	372.05850										-1437.93152	679.84192	331.86966																															-1472.31396	646.67468	-227.52151				-1416.59033	573.28094	-264.53674	-1451.28540	564.50873	-283.30737							
375	2.493													-1722.83459	1071.71887	250.31268							-1663.95544	834.36218	371.78748										-1430.64771	686.35370	330.14447																															-1464.24329	653.12054	-225.25746				-1406.10828	581.30817	-261.42996	-1440.56934	571.12152	-280.08490							
376	2.500													-1715.73572	1072.29822	250.16019							-1656.87061	835.37482	372.10571										-1423.35510	691.37018	327.23920																															-1456.40735	659.40240	-222.91264				-1395.94299	589.17041	-258.29660	-1429.99878	577.60120	-276.84091							
377	2.507													-1708.63574	1072.80835	250.00479							-1649.83569	836.19098	372.25281										-1416.26819	696.71729	324.73050																															-1448.63074	665.29901	-220.43672				-1386.09839	596.93738	-255.21341	-1419.81555	583.86823	-273.49258							
378	2.513							-1774.16504	1137.29028	42.53313				-1701.40454	1073.17419	249.82933	-1661.49512	903.33130	339.08768				-1642.72583	836.85468	372.27481										-1409.42236	701.65509	322.11203																															-1441.05103	671.08136	-217.83731				-1376.51636	604.46716	-252.14243	-1409.84644	589.96033	-270.03845							
379	2.520							-1766.73120	1137.35999	42.40708				-1694.23291	1073.54150	249.57469	-1654.51843	903.09406	336.72675				-1635.79382	837.41327	372.31439										-1402.65491	706.28717	319.21588																															-1433.57593	676.65063	-215.16968				-1367.19495	611.68591	-248.88953	-1400.11987	595.82990	-266.44980							
380	2.527							-1759.26733	1137.40015	42.21704				-1686.97290	1073.82410	249.29277	-1647.52307	903.19983	336.02603				-1628.82922	837.90515	372.32346										-1395.96033	710.64868	316.28909																															-1426.17688	681.88019	-212.42442				-1358.03235	618.61646	-245.45084	-1390.54309	601.52063	-262.90341							
381	2.533							-1751.71497	1137.41492	41.96176				-1679.69226	1074.00269	249.02284	-1640.39954	903.04639	334.46487				-1621.98438	838.33911	372.14597										-1389.39197	714.70612	313.30051																															-1418.87439	686.86615	-209.65581				-1349.21460	625.29468	-242.09238	-1381.21484	607.02179	-259.22641							
382	2.540							-1744.22083	1137.37378	41.77357				-1672.36938	1074.12061	248.66035	-1633.48108	902.84216	332.91180				-1614.90833	838.39441	371.92236										-1382.85107	718.46649	310.00134																															-1411.61511	691.60919	-206.71712				-1340.46558	631.55127	-238.45297	-1372.01001	612.23431	-255.36545							
383	2.547							-1736.64795	1137.28125	41.56718				-1665.09094	1074.18335	248.31322	-1626.32104	904.68744	334.55405				-1607.89697	838.40662	371.73029										-1376.52905	722.56696	307.13751																															-1404.40454	696.07129	-203.67690				-1331.92004	637.57672	-234.72833	-1362.98767	617.21106	-251.64365							
